<svg width="32" height="23" viewBox="0 0 32 23" fill="none" xmlns="http://www.w3.org/2000/svg">
<g clip-path="url(#clip0_136_126)">
<path d="M25.8397 2.09534C29.2031 7.02664 30.8641 12.589 30.2431 18.9926C30.2405 19.0197 30.2264 19.0445 30.2041 19.0609C27.6571 20.9259 25.1894 22.0577 22.7563 22.8084C22.7374 22.8141 22.7171 22.8138 22.6984 22.8074C22.6796 22.8011 22.6633 22.7891 22.6517 22.7731C22.0896 21.9932 21.5789 21.1709 21.1314 20.3074C21.1057 20.2566 21.1292 20.1953 21.1821 20.1753C21.9932 19.8705 22.7645 19.5052 23.5064 19.0728C23.5649 19.0386 23.5686 18.9551 23.5146 18.915C23.3571 18.7984 23.2012 18.6759 23.0519 18.5534C23.024 18.5308 22.9864 18.5263 22.9547 18.5415C18.1381 20.7596 12.8618 20.7596 7.98818 18.5415C7.95654 18.5274 7.91894 18.5323 7.89177 18.5545C7.74287 18.677 7.58652 18.7984 7.43054 18.915C7.37657 18.9551 7.38103 19.0386 7.43985 19.0728C8.18176 19.4971 8.95307 19.8705 9.7631 20.1768C9.81559 20.1968 9.84053 20.2566 9.81447 20.3074C9.3767 21.172 8.86596 21.9943 8.29343 22.7742C8.26849 22.8058 8.22754 22.8202 8.18883 22.8084C5.7673 22.0577 3.29962 20.9259 0.752641 19.0609C0.731422 19.0445 0.71616 19.0186 0.713926 18.9915C0.195001 13.4525 1.25258 7.84406 5.11325 2.09422C5.12255 2.079 5.1367 2.06712 5.15308 2.06007C7.0527 1.19067 9.08783 0.551058 11.2149 0.185777C11.2536 0.179837 11.2923 0.197656 11.3124 0.231808C11.5752 0.695834 11.8757 1.2909 12.0789 1.7772C14.321 1.43568 16.5981 1.43568 18.8871 1.7772C19.0903 1.3013 19.3803 0.695834 19.642 0.231808C19.6514 0.214865 19.6658 0.201292 19.6833 0.193025C19.7008 0.184759 19.7205 0.182222 19.7396 0.185777C21.8678 0.552172 23.9029 1.19179 25.801 2.06007C25.8178 2.06712 25.8315 2.079 25.8397 2.09534ZM13.2188 12.6269C13.2422 10.9894 12.045 9.63446 10.5422 9.63446C9.05172 9.63446 7.86608 10.9775 7.86608 12.6269C7.86608 14.2758 9.07517 15.6189 10.5422 15.6189C12.0331 15.6189 13.2188 14.2758 13.2188 12.6269ZM23.1141 12.6269C23.1375 10.9894 21.9403 9.63446 20.4379 9.63446C18.947 9.63446 17.7614 10.9775 17.7614 12.6269C17.7614 14.2758 18.9705 15.6189 20.4379 15.6189C21.9403 15.6189 23.1141 14.2758 23.1141 12.6269Z" fill="white"/>
</g>
<defs>
<clipPath id="clip0_136_126">
<rect width="31.0588" height="22.6471" fill="white" transform="translate(0 0.176468)"/>
</clipPath>
</defs>
</svg>
