<svg width="30" height="30" viewBox="0 0 30 30" fill="none" xmlns="http://www.w3.org/2000/svg">
<g clip-path="url(#clip0_136_121)">
<path fill-rule="evenodd" clip-rule="evenodd" d="M14.5577 1.00562C6.51916 1.00562 0 7.52391 0 15.5651C0 21.9967 4.17122 27.454 9.95657 29.3801C10.685 29.5133 10.9504 29.0637 10.9504 28.6776C10.9504 28.3317 10.9378 27.4164 10.9302 26.2018C6.88051 27.0813 6.02608 24.2499 6.02608 24.2499C5.3638 22.5678 4.40925 22.12 4.40925 22.12C3.08736 21.2173 4.50932 21.2351 4.50932 21.2351C5.97062 21.338 6.73927 22.7358 6.73927 22.7358C8.03792 24.9603 10.1472 24.3178 10.9766 23.9451C11.1089 23.0048 11.4852 22.3631 11.9008 21.9993C8.66803 21.6311 5.26902 20.3825 5.26902 14.8036C5.26902 13.2136 5.83658 11.915 6.76787 10.897C6.61763 10.5287 6.1181 9.04861 6.91101 7.0439C6.91101 7.0439 8.13277 6.65246 10.9142 8.53565C12.0752 8.21298 13.3211 8.0521 14.559 8.04584C15.7959 8.05091 17.041 8.21305 18.2037 8.53565C20.9834 6.65246 22.2033 7.0439 22.2033 7.0439C22.9979 9.04861 22.4983 10.5287 22.349 10.897C23.2821 11.915 23.8452 13.2136 23.8452 14.8036C23.8452 20.3968 20.4408 21.6275 17.1982 21.9877C17.7202 22.4372 18.1859 23.3257 18.1859 24.6842C18.1859 26.6299 18.1681 28.2003 18.1681 28.6776C18.1681 29.0672 18.4309 29.5204 19.1691 29.3783C24.95 27.4487 29.1176 21.9958 29.1176 15.5651C29.1176 7.52391 22.5989 1.00562 14.5577 1.00562Z" fill="white"/>
</g>
<defs>
<clipPath id="clip0_136_121">
<rect width="29.1176" height="29.1176" fill="white" transform="translate(0 0.647057)"/>
</clipPath>
</defs>
</svg>
