<svg width="31" height="30" viewBox="0 0 31 30" fill="none" xmlns="http://www.w3.org/2000/svg">
<g clip-path="url(#clip0_136_124)">
<path d="M0 4.02978C0 3.04937 0.342485 2.24055 1.02742 1.60331C1.71236 0.966048 2.60282 0.64743 3.69873 0.64743C4.77509 0.64743 5.64593 0.961136 6.31132 1.58861C6.99626 2.23566 7.33875 3.07878 7.33875 4.11801C7.33875 5.05919 7.00607 5.84348 6.34068 6.47095C5.65574 7.11801 4.75551 7.44154 3.64002 7.44154H3.61066C2.5343 7.44154 1.66346 7.11801 0.998069 6.47095C0.33268 5.82389 0 5.01016 0 4.02978ZM0.381615 29.765V10.118H6.89842V29.765H0.381615ZM10.5091 29.765H17.0259V18.7945C17.0259 18.1082 17.1042 17.5788 17.2607 17.2062C17.5347 16.5396 17.9506 15.9758 18.5083 15.5151C19.0661 15.0543 19.7657 14.8239 20.6072 14.8239C22.799 14.8239 23.895 16.3043 23.895 19.265V29.765H30.4118V18.5003C30.4118 15.5984 29.7268 13.3974 28.3569 11.8974C26.987 10.3974 25.1768 9.64742 22.9262 9.64742C20.4017 9.64742 18.4349 10.7356 17.0259 12.9121V12.9709H16.9965L17.0259 12.9121V10.118H10.5091C10.5482 10.7454 10.5678 12.6964 10.5678 15.9709C10.5678 19.2454 10.5482 23.8435 10.5091 29.765Z" fill="white"/>
</g>
<defs>
<clipPath id="clip0_136_124">
<rect width="30.4118" height="29.1176" fill="white" transform="translate(0 0.647057)"/>
</clipPath>
</defs>
</svg>
