<svg width="220" height="29" viewBox="0 0 220 29" fill="none" xmlns="http://www.w3.org/2000/svg">
<path d="M209 22.7353L217.118 14.6176L209 6.5" stroke="#075FE4" stroke-width="4" stroke-linecap="round" stroke-linejoin="round"/>
<path d="M10.1176 22.7353L2 14.6176L10.1176 6.5" stroke="#075FE4" stroke-width="4" stroke-linecap="round" stroke-linejoin="round"/>
<path d="M204.5 6L198 23" stroke="#075FE4" stroke-width="4" stroke-linecap="round" stroke-linejoin="round"/>
<path d="M23.3363 23V5.54545H33.8022V7.42045H25.4499V13.3182H33.0181V15.1932H25.4499V23H23.3363ZM41.6772 23.2727C40.4158 23.2727 39.3278 22.9943 38.413 22.4375C37.5039 21.875 36.8022 21.0909 36.3079 20.0852C35.8192 19.0739 35.5749 17.8977 35.5749 16.5568C35.5749 15.2159 35.8192 14.0341 36.3079 13.0114C36.8022 11.983 37.4897 11.1818 38.3704 10.608C39.2567 10.0284 40.2908 9.73864 41.4727 9.73864C42.1545 9.73864 42.8278 9.85227 43.4925 10.0795C44.1573 10.3068 44.7624 10.6761 45.3079 11.1875C45.8533 11.6932 46.288 12.3636 46.6119 13.1989C46.9357 14.0341 47.0977 15.0625 47.0977 16.2841V17.1364H37.0067V15.3977H45.0522C45.0522 14.6591 44.9045 14 44.609 13.4205C44.3192 12.8409 43.9045 12.3835 43.3647 12.0483C42.8306 11.7131 42.1999 11.5455 41.4727 11.5455C40.6715 11.5455 39.9783 11.7443 39.3931 12.142C38.8136 12.5341 38.3675 13.0455 38.055 13.6761C37.7425 14.3068 37.5863 14.983 37.5863 15.7045V16.8636C37.5863 17.8523 37.7567 18.6903 38.0977 19.3778C38.4442 20.0597 38.9244 20.5795 39.538 20.9375C40.1516 21.2898 40.8647 21.4659 41.6772 21.4659C42.2056 21.4659 42.6829 21.392 43.109 21.2443C43.5408 21.0909 43.913 20.8636 44.2255 20.5625C44.538 20.2557 44.7795 19.875 44.9499 19.4205L46.8931 19.9659C46.6886 20.625 46.3448 21.2045 45.8619 21.7045C45.3789 22.1989 44.7823 22.5852 44.0721 22.8636C43.3619 23.1364 42.5636 23.2727 41.6772 23.2727ZM50.1573 23V9.90909H52.1005V11.8864H52.2369C52.4755 11.2386 52.9073 10.7131 53.5323 10.3097C54.1573 9.90625 54.8619 9.70454 55.646 9.70454C55.7937 9.70454 55.9783 9.70739 56.1999 9.71307C56.4215 9.71875 56.5891 9.72727 56.7028 9.73864V11.7841C56.6346 11.767 56.4783 11.7415 56.234 11.7074C55.9954 11.6676 55.7425 11.6477 55.4755 11.6477C54.8391 11.6477 54.271 11.7812 53.771 12.0483C53.2766 12.3097 52.8846 12.6733 52.5948 13.1392C52.3107 13.5994 52.1687 14.125 52.1687 14.7159V23H50.1573ZM61.0984 15.125V23H59.087V9.90909H61.0302V11.9545H61.2006C61.5075 11.2898 61.9734 10.7557 62.5984 10.3523C63.2234 9.94318 64.0302 9.73864 65.0188 9.73864C65.9052 9.73864 66.6808 9.92045 67.3455 10.2841C68.0103 10.642 68.5273 11.1875 68.8967 11.9205C69.266 12.6477 69.4506 13.5682 69.4506 14.6818V23H67.4393V14.8182C67.4393 13.7898 67.1722 12.9886 66.6381 12.4148C66.104 11.8352 65.3711 11.5455 64.4393 11.5455C63.7972 11.5455 63.2234 11.6847 62.7177 11.9631C62.2177 12.2415 61.8228 12.6477 61.533 13.1818C61.2433 13.7159 61.0984 14.3636 61.0984 15.125ZM76.9783 23.3068C76.1488 23.3068 75.396 23.1506 74.7198 22.8381C74.0437 22.5199 73.5067 22.0625 73.109 21.4659C72.7113 20.8636 72.5124 20.1364 72.5124 19.2841C72.5124 18.5341 72.6602 17.9261 72.9556 17.4602C73.2511 16.9886 73.646 16.6193 74.1403 16.3523C74.6346 16.0852 75.18 15.8864 75.7766 15.7557C76.3789 15.6193 76.984 15.5114 77.592 15.4318C78.3874 15.3295 79.0323 15.2528 79.5266 15.2017C80.0266 15.1449 80.3903 15.0511 80.6175 14.9205C80.8505 14.7898 80.967 14.5625 80.967 14.2386V14.1705C80.967 13.3295 80.7369 12.6761 80.2766 12.2102C79.8221 11.7443 79.1317 11.5114 78.2056 11.5114C77.2454 11.5114 76.4925 11.7216 75.9471 12.142C75.4016 12.5625 75.0181 13.0114 74.7965 13.4886L72.8874 12.8068C73.2283 12.0114 73.6829 11.392 74.2511 10.9489C74.8249 10.5 75.4499 10.1875 76.1261 10.0114C76.8079 9.82955 77.4783 9.73864 78.1374 9.73864C78.5579 9.73864 79.0408 9.78977 79.5863 9.89204C80.1374 9.98864 80.6687 10.1903 81.18 10.4972C81.6971 10.804 82.1261 11.267 82.467 11.8864C82.8079 12.5057 82.9783 13.3352 82.9783 14.375V23H80.967V21.2273H80.8647C80.7283 21.5114 80.5011 21.8153 80.1829 22.1392C79.8647 22.4631 79.4414 22.7386 78.913 22.9659C78.3846 23.1932 77.7397 23.3068 76.9783 23.3068ZM77.2852 21.5C78.0806 21.5 78.7511 21.3438 79.2965 21.0312C79.8477 20.7188 80.2624 20.3153 80.5408 19.821C80.8249 19.3267 80.967 18.8068 80.967 18.2614V16.4205C80.8817 16.5227 80.6942 16.6165 80.4045 16.7017C80.1204 16.7812 79.7908 16.8523 79.4158 16.9148C79.0465 16.9716 78.6857 17.0227 78.3335 17.0682C77.9869 17.108 77.7056 17.142 77.4897 17.1705C76.967 17.2386 76.4783 17.3494 76.0238 17.5028C75.5749 17.6506 75.2113 17.875 74.9329 18.1761C74.6602 18.4716 74.5238 18.875 74.5238 19.3864C74.5238 20.0852 74.7823 20.6136 75.2994 20.9716C75.8221 21.3239 76.484 21.5 77.2852 21.5ZM88.6609 15.125V23H86.6495V9.90909H88.5927V11.9545H88.7631C89.07 11.2898 89.5359 10.7557 90.1609 10.3523C90.7859 9.94318 91.5927 9.73864 92.5813 9.73864C93.4677 9.73864 94.2433 9.92045 94.908 10.2841C95.5728 10.642 96.0898 11.1875 96.4592 11.9205C96.8285 12.6477 97.0131 13.5682 97.0131 14.6818V23H95.0018V14.8182C95.0018 13.7898 94.7347 12.9886 94.2006 12.4148C93.6665 11.8352 92.9336 11.5455 92.0018 11.5455C91.3597 11.5455 90.7859 11.6847 90.2802 11.9631C89.7802 12.2415 89.3853 12.6477 89.0955 13.1818C88.8058 13.7159 88.6609 14.3636 88.6609 15.125ZM105.632 23.2727C104.541 23.2727 103.578 22.9972 102.743 22.446C101.907 21.8892 101.254 21.1051 100.782 20.0938C100.311 19.0767 100.075 17.875 100.075 16.4886C100.075 15.1136 100.311 13.9205 100.782 12.9091C101.254 11.8977 101.91 11.1165 102.751 10.5653C103.592 10.0142 104.564 9.73864 105.666 9.73864C106.518 9.73864 107.191 9.88068 107.686 10.1648C108.186 10.4432 108.566 10.7614 108.828 11.1193C109.095 11.4716 109.302 11.7614 109.45 11.9886H109.62V5.54545H111.632V23H109.689V20.9886H109.45C109.302 21.2273 109.092 21.5284 108.819 21.892C108.547 22.25 108.157 22.571 107.652 22.8551C107.146 23.1335 106.473 23.2727 105.632 23.2727ZM105.904 21.4659C106.711 21.4659 107.393 21.2557 107.95 20.8352C108.507 20.4091 108.93 19.821 109.22 19.071C109.51 18.3153 109.654 17.4432 109.654 16.4545C109.654 15.4773 109.512 14.6222 109.228 13.8892C108.944 13.1506 108.524 12.5767 107.967 12.1676C107.41 11.7528 106.723 11.5455 105.904 11.5455C105.052 11.5455 104.342 11.7642 103.774 12.2017C103.211 12.6335 102.788 13.2216 102.504 13.9659C102.225 14.7045 102.086 15.5341 102.086 16.4545C102.086 17.3864 102.228 18.233 102.512 18.9943C102.802 19.75 103.228 20.3523 103.791 20.8011C104.359 21.2443 105.064 21.4659 105.904 21.4659ZM120.913 23.2727C119.731 23.2727 118.694 22.9915 117.802 22.429C116.916 21.8665 116.223 21.0795 115.723 20.0682C115.228 19.0568 114.981 17.875 114.981 16.5227C114.981 15.1591 115.228 13.9687 115.723 12.9517C116.223 11.9347 116.916 11.1449 117.802 10.5824C118.694 10.0199 119.731 9.73864 120.913 9.73864C122.095 9.73864 123.129 10.0199 124.015 10.5824C124.907 11.1449 125.6 11.9347 126.095 12.9517C126.595 13.9687 126.845 15.1591 126.845 16.5227C126.845 17.875 126.595 19.0568 126.095 20.0682C125.6 21.0795 124.907 21.8665 124.015 22.429C123.129 22.9915 122.095 23.2727 120.913 23.2727ZM120.913 21.4659C121.811 21.4659 122.549 21.2358 123.129 20.7756C123.708 20.3153 124.137 19.7102 124.416 18.9602C124.694 18.2102 124.833 17.3977 124.833 16.5227C124.833 15.6477 124.694 14.8324 124.416 14.0767C124.137 13.321 123.708 12.7102 123.129 12.2443C122.549 11.7784 121.811 11.5455 120.913 11.5455C120.015 11.5455 119.277 11.7784 118.697 12.2443C118.118 12.7102 117.689 13.321 117.41 14.0767C117.132 14.8324 116.993 15.6477 116.993 16.5227C116.993 17.3977 117.132 18.2102 117.41 18.9602C117.689 19.7102 118.118 20.3153 118.697 20.7756C119.277 21.2358 120.015 21.4659 120.913 21.4659ZM136.938 23V5.54545H147.404V7.42045H139.051V13.3182H146.62V15.1932H139.051V23H136.938ZM150.751 23V9.90909H152.762V23H150.751ZM151.774 7.72727C151.382 7.72727 151.044 7.59375 150.76 7.3267C150.481 7.05966 150.342 6.73864 150.342 6.36364C150.342 5.98864 150.481 5.66761 150.76 5.40057C151.044 5.13352 151.382 5 151.774 5C152.166 5 152.501 5.13352 152.779 5.40057C153.064 5.66761 153.206 5.98864 153.206 6.36364C153.206 6.73864 153.064 7.05966 152.779 7.3267C152.501 7.59375 152.166 7.72727 151.774 7.72727ZM158.458 5.54545V23H156.446V5.54545H158.458ZM167.835 9.90909V11.6136H161.051V9.90909H167.835ZM163.028 6.77273H165.039V19.25C165.039 19.8182 165.122 20.2443 165.287 20.5284C165.457 20.8068 165.673 20.9943 165.934 21.0909C166.201 21.1818 166.483 21.2273 166.778 21.2273C167 21.2273 167.181 21.2159 167.324 21.1932C167.466 21.1648 167.579 21.142 167.664 21.125L168.074 22.9318C167.937 22.983 167.747 23.0341 167.502 23.0852C167.258 23.142 166.949 23.1705 166.574 23.1705C166.005 23.1705 165.449 23.0483 164.903 22.804C164.363 22.5597 163.914 22.1875 163.556 21.6875C163.204 21.1875 163.028 20.5568 163.028 19.7955V6.77273ZM176.208 23.2727C174.947 23.2727 173.859 22.9943 172.944 22.4375C172.035 21.875 171.333 21.0909 170.839 20.0852C170.35 19.0739 170.106 17.8977 170.106 16.5568C170.106 15.2159 170.35 14.0341 170.839 13.0114C171.333 11.983 172.021 11.1818 172.902 10.608C173.788 10.0284 174.822 9.73864 176.004 9.73864C176.686 9.73864 177.359 9.85227 178.024 10.0795C178.689 10.3068 179.294 10.6761 179.839 11.1875C180.385 11.6932 180.819 12.3636 181.143 13.1989C181.467 14.0341 181.629 15.0625 181.629 16.2841V17.1364H171.538V15.3977H179.583C179.583 14.6591 179.436 14 179.14 13.4205C178.85 12.8409 178.436 12.3835 177.896 12.0483C177.362 11.7131 176.731 11.5455 176.004 11.5455C175.203 11.5455 174.51 11.7443 173.924 12.142C173.345 12.5341 172.899 13.0455 172.586 13.6761C172.274 14.3068 172.118 14.983 172.118 15.7045V16.8636C172.118 17.8523 172.288 18.6903 172.629 19.3778C172.975 20.0597 173.456 20.5795 174.069 20.9375C174.683 21.2898 175.396 21.4659 176.208 21.4659C176.737 21.4659 177.214 21.392 177.64 21.2443C178.072 21.0909 178.444 20.8636 178.757 20.5625C179.069 20.2557 179.311 19.875 179.481 19.4205L181.424 19.9659C181.22 20.625 180.876 21.2045 180.393 21.7045C179.91 22.1989 179.314 22.5852 178.603 22.8636C177.893 23.1364 177.095 23.2727 176.208 23.2727ZM184.689 23V9.90909H186.632V11.8864H186.768C187.007 11.2386 187.439 10.7131 188.064 10.3097C188.689 9.90625 189.393 9.70454 190.177 9.70454C190.325 9.70454 190.51 9.70739 190.731 9.71307C190.953 9.71875 191.12 9.72727 191.234 9.73864V11.7841C191.166 11.767 191.01 11.7415 190.765 11.7074C190.527 11.6676 190.274 11.6477 190.007 11.6477C189.37 11.6477 188.802 11.7812 188.302 12.0483C187.808 12.3097 187.416 12.6733 187.126 13.1392C186.842 13.5994 186.7 14.125 186.7 14.7159V23H184.689Z" fill="white"/>
</svg>
