<svg width="30" height="33" viewBox="0 0 30 33" fill="none" xmlns="http://www.w3.org/2000/svg">
<g clip-path="url(#clip0_136_128)">
<path d="M14.5653 9.08789C10.4317 9.08789 7.09742 12.3943 7.09742 16.4936C7.09742 20.5928 10.4317 23.8992 14.5653 23.8992C18.699 23.8992 22.0332 20.5928 22.0332 16.4936C22.0332 12.3943 18.699 9.08789 14.5653 9.08789ZM14.5653 21.3082C11.894 21.3082 9.71021 19.149 9.71021 16.4936C9.71021 13.8381 11.8875 11.6789 14.5653 11.6789C17.2431 11.6789 19.4204 13.8381 19.4204 16.4936C19.4204 19.149 17.2366 21.3082 14.5653 21.3082ZM24.0805 8.78496C24.0805 9.74532 23.3006 10.5123 22.3387 10.5123C21.3703 10.5123 20.5968 9.73887 20.5968 8.78496C20.5968 7.83106 21.3768 7.05762 22.3387 7.05762C23.3006 7.05762 24.0805 7.83106 24.0805 8.78496ZM29.0266 10.5381C28.9162 8.22422 28.3832 6.17461 26.6738 4.48594C24.971 2.79727 22.9041 2.26875 20.5708 2.15274C18.166 2.01739 10.9581 2.01739 8.5533 2.15274C6.22649 2.26231 4.15966 2.79082 2.45029 4.4795C0.740932 6.16817 0.214474 8.21778 0.0974839 10.5316C-0.0390051 12.9164 -0.0390051 20.0643 0.0974839 22.449C0.207975 24.7629 0.740932 26.8125 2.45029 28.5012C4.15966 30.1898 6.21999 30.7184 8.5533 30.8344C10.9581 30.9697 18.166 30.9697 20.5708 30.8344C22.9041 30.7248 24.971 30.1963 26.6738 28.5012C28.3767 26.8125 28.9097 24.7629 29.0266 22.449C29.1631 20.0643 29.1631 12.9229 29.0266 10.5381ZM25.9199 25.0078C25.4129 26.2711 24.4315 27.2443 23.1511 27.7535C21.2338 28.5076 16.6841 28.3336 14.5653 28.3336C12.4465 28.3336 7.89035 28.5012 5.97951 27.7535C4.70561 27.2508 3.72419 26.2775 3.21073 25.0078C2.45029 23.1064 2.62578 18.5947 2.62578 16.4936C2.62578 14.3924 2.45679 9.87422 3.21073 7.9793C3.71769 6.71602 4.69911 5.74278 5.97951 5.2336C7.89685 4.4795 12.4465 4.65352 14.5653 4.65352C16.6841 4.65352 21.2403 4.48594 23.1511 5.2336C24.425 5.73633 25.4064 6.70957 25.9199 7.9793C26.6803 9.88067 26.5049 14.3924 26.5049 16.4936C26.5049 18.5947 26.6803 23.1129 25.9199 25.0078Z" fill="white"/>
</g>
<defs>
<clipPath id="clip0_136_128">
<rect width="29.1176" height="33" fill="white"/>
</clipPath>
</defs>
</svg>
