<svg width="33" height="33" viewBox="0 0 33 33" fill="none" xmlns="http://www.w3.org/2000/svg">
<path d="M30.0962 23.2651V27.3901C30.0977 27.7731 30.0193 28.1521 29.8659 28.503C29.7124 28.8539 29.4874 29.1688 29.2053 29.4277C28.9231 29.6866 28.5899 29.8837 28.2272 30.0064C27.8644 30.129 27.48 30.1746 27.0987 30.1401C22.8676 29.6804 18.8033 28.2346 15.2324 25.9189C11.9102 23.8078 9.0935 20.9911 6.98241 17.6689C4.65863 14.0818 3.21249 9.99775 2.76116 5.74763C2.7268 5.3674 2.77199 4.98418 2.89385 4.62237C3.01571 4.26056 3.21157 3.92808 3.46896 3.64611C3.72636 3.36414 4.03964 3.13886 4.38887 2.9846C4.7381 2.83034 5.11563 2.75049 5.49741 2.75013H9.62241C10.2897 2.74357 10.9366 2.97987 11.4426 3.41499C11.9485 3.85012 12.279 4.45437 12.3724 5.11513C12.5465 6.43522 12.8694 7.73138 13.3349 8.97888C13.5199 9.47103 13.5599 10.0059 13.4503 10.5201C13.3406 11.0343 13.0858 11.5063 12.7162 11.8801L10.9699 13.6264C12.9273 17.0688 15.7775 19.919 19.2199 21.8764L20.9662 20.1301C21.34 19.7604 21.812 19.5057 22.3262 19.396C22.8404 19.2863 23.3753 19.3264 23.8674 19.5114C25.1149 19.9769 26.4111 20.2998 27.7312 20.4739C28.3991 20.5681 29.0091 20.9045 29.4451 21.4192C29.8812 21.9338 30.1129 22.5908 30.0962 23.2651Z" stroke="white" stroke-width="2" stroke-linecap="round" stroke-linejoin="round"/>
</svg>
