<svg width="106" height="106" viewBox="0 0 106 106" fill="none" xmlns="http://www.w3.org/2000/svg">
<g filter="url(#filter0_d_50_72)">
<rect x="4" width="98" height="98" rx="10" fill="#FFCA28"/>
</g>
<g clip-path="url(#clip0_50_72)">
<path d="M67.3075 28.0696C64.0837 28.326 61.3804 29.4885 59.3675 31.4886C57.2951 33.5486 56.3059 36.0614 56.3059 39.2496C56.3059 44.0192 58.259 47.3527 62.617 49.9938C63.7257 50.6604 65.2352 51.3871 67.8448 52.5155C71.4014 54.0455 72.7234 54.7721 73.5674 55.6779C74.6077 56.7979 74.8981 58.5842 74.2411 59.9517C74.1133 60.2169 73.7806 60.6612 73.4821 60.9603C72.4757 61.9774 70.8895 62.516 68.9194 62.516C65.5933 62.516 63.1114 61.1484 61.116 58.1909C60.843 57.7978 60.5955 57.4729 60.5614 57.4729C60.4846 57.4729 53.9944 61.225 53.858 61.3536C53.7728 61.4305 53.8411 61.6101 54.1737 62.1569C56.7665 66.5331 60.8175 69.0976 66.2926 69.8325C67.7257 70.0294 70.4121 70.0206 71.7851 69.8325C75.2305 69.3456 77.8145 68.2 79.8189 66.2511C81.951 64.1911 82.9999 61.5243 82.9999 58.1822C82.9999 56.0453 82.6502 54.3786 81.8569 52.7286C81.3112 51.6005 80.7653 50.8396 79.8271 49.8822C78.0277 48.0532 75.6997 46.6685 71.0516 44.6684C67.5377 43.1556 66.361 42.5059 65.5848 41.6768C64.8429 40.8819 64.5274 39.9503 64.5956 38.7878C64.6555 37.8646 64.9116 37.2406 65.4742 36.6337C66.2843 35.7533 67.2227 35.3857 68.6726 35.3943C70.3184 35.3943 71.3846 35.8217 72.4677 36.9158C72.8515 37.292 73.3461 37.8988 73.5763 38.2662C73.8406 38.6851 74.0369 38.916 74.1049 38.8902C74.3265 38.7962 80.5272 34.779 80.5272 34.7191C80.5272 34.6849 80.2113 34.1892 79.8275 33.608C79.0089 32.3772 77.5336 30.8386 76.5185 30.1634C74.6422 28.9157 72.638 28.2746 69.9942 28.0779C68.6977 27.9755 68.5272 27.9755 67.3075 28.0696ZM40.7585 43.6003L40.7328 58.7122L40.5453 59.4215C40.2979 60.3533 40.0081 60.909 39.4963 61.4216C38.7798 62.1395 37.8588 62.4388 36.3237 62.4473C34.1317 62.4559 32.8183 61.5244 31.2918 58.9088C31.0445 58.4986 30.8227 58.1653 30.7971 58.1735C30.7629 58.1909 29.2193 59.1224 27.3687 60.2423L24 62.2937L24.2558 62.8065C25.7825 65.858 28.4261 68.1656 31.6074 69.2256C34.9676 70.3453 39.283 70.2426 42.4471 68.9691C46.2424 67.4305 48.4681 64.2508 49.0566 59.524C49.1078 59.0454 49.142 53.7033 49.142 43.6515V28.4969H44.9631H40.7926L40.7585 43.6003Z" fill="black"/>
</g>
<defs>
<filter id="filter0_d_50_72" x="0" y="0" width="106" height="106" filterUnits="userSpaceOnUse" color-interpolation-filters="sRGB">
<feFlood flood-opacity="0" result="BackgroundImageFix"/>
<feColorMatrix in="SourceAlpha" type="matrix" values="0 0 0 0 0 0 0 0 0 0 0 0 0 0 0 0 0 0 127 0" result="hardAlpha"/>
<feOffset dy="4"/>
<feGaussianBlur stdDeviation="2"/>
<feComposite in2="hardAlpha" operator="out"/>
<feColorMatrix type="matrix" values="0 0 0 0 0 0 0 0 0 0 0 0 0 0 0 0 0 0 0.25 0"/>
<feBlend mode="normal" in2="BackgroundImageFix" result="effect1_dropShadow_50_72"/>
<feBlend mode="normal" in="SourceGraphic" in2="effect1_dropShadow_50_72" result="shape"/>
</filter>
<clipPath id="clip0_50_72">
<rect width="59" height="42" fill="white" transform="translate(24 28)"/>
</clipPath>
</defs>
</svg>
