<svg width="106" height="106" viewBox="0 0 106 106" fill="none" xmlns="http://www.w3.org/2000/svg">
<g filter="url(#filter0_d_50_66)">
<rect x="4" width="98" height="98" rx="10" fill="#8CC84B"/>
</g>
<g clip-path="url(#clip0_50_66)">
<path d="M50.8447 17.8252C52.4488 16.9066 54.5383 16.9025 56.1411 17.8252C64.2046 22.383 72.2706 26.9337 80.3327 31.4943C81.8491 32.3487 82.8634 34.0369 82.8479 35.7848V63.2065C82.8592 65.0267 81.7447 66.7552 80.1449 67.5903C72.1079 72.123 64.0751 76.6612 56.0394 81.1939C54.4021 82.1304 52.2707 82.0583 50.6845 81.045C48.275 79.6478 45.8614 78.2574 43.4517 76.8615C42.9593 76.5679 42.4042 76.3341 42.0565 75.8566C42.3639 75.4421 42.9134 75.3905 43.36 75.2096C44.3658 74.8896 45.2895 74.3761 46.2135 73.8777C46.4471 73.7178 46.7324 73.7791 46.9564 73.9222C49.0168 75.104 51.059 76.3201 53.1263 77.4906C53.5673 77.7452 54.0138 77.4071 54.3908 77.1969C62.2776 72.7379 70.174 68.2958 78.0594 63.8355C78.3515 63.6949 78.5131 63.3846 78.4893 63.0645C78.4949 54.0186 78.4907 44.9712 78.4921 35.9254C78.5255 35.5621 78.3154 35.2281 77.987 35.0794C69.9779 30.5675 61.9729 26.0486 53.9652 21.5355C53.8265 21.44 53.6621 21.3889 53.4938 21.3886C53.3254 21.3884 53.1609 21.4391 53.0219 21.5341C45.0142 26.0486 37.0106 30.5716 29.0028 35.0834C28.6757 35.2323 28.4561 35.5607 28.495 35.9254C28.4964 44.9712 28.495 54.0186 28.495 63.0658C28.4811 63.2221 28.5154 63.3788 28.5933 63.5149C28.6711 63.651 28.7888 63.76 28.9305 63.8272C31.0674 65.0394 33.2071 66.243 35.3453 67.451C36.55 68.0997 38.029 68.4851 39.3562 67.9881C40.5274 67.5679 41.3484 66.3723 41.3261 65.1283C41.3371 56.1353 41.3206 47.1408 41.3344 38.1492C41.3051 37.75 41.6837 37.4201 42.0717 37.4577C43.0985 37.4508 44.1266 37.4439 45.1533 37.4605C45.5819 37.4508 45.8768 37.8807 45.8238 38.2829C45.8197 47.3329 45.8349 56.3831 45.8169 65.433C45.8197 67.845 44.8291 70.4694 42.5989 71.6495C39.8514 73.0733 36.4555 72.7714 33.7412 71.4061C31.3914 70.2329 29.1489 68.8483 26.8408 67.5914C25.2369 66.7609 24.1279 65.0255 24.1392 63.2067V35.7848C24.1224 34.0007 25.177 32.2819 26.7406 31.4399C34.7762 26.9035 42.8104 22.3636 50.8447 17.8252Z" fill="white"/>
<path d="M57.8549 36.8204C61.3596 36.5947 65.1115 36.6867 68.2652 38.4138C70.707 39.7373 72.0607 42.515 72.1037 45.2287C72.0355 45.5947 71.6531 45.7966 71.3037 45.7715C70.2869 45.7701 69.2698 45.7853 68.253 45.7646C67.8217 45.7812 67.571 45.3833 67.5168 45.0019C67.2246 43.7035 66.5168 42.4175 65.2951 41.7913C63.4197 40.852 61.2453 40.8993 59.2003 40.9189C57.7074 40.9982 56.1021 41.1275 54.8373 42.0056C53.8664 42.6709 53.5714 44.0137 53.918 45.0952C54.2447 45.8718 55.1408 46.1223 55.874 46.3533C60.0976 47.4583 64.5732 47.3483 68.7161 48.8025C70.4314 49.3954 72.1093 50.5478 72.6964 52.3443C73.4644 54.7521 73.1277 57.6301 71.4153 59.563C70.0265 61.1537 68.0039 62.0194 65.9866 62.4896C63.3029 63.0882 60.5179 63.1035 57.7925 62.8377C55.2298 62.5454 52.5629 61.8719 50.5845 60.1252C48.8928 58.6558 48.0665 56.3663 48.1485 54.1565C48.1681 53.7833 48.5396 53.5231 48.8969 53.5538C49.9209 53.5455 50.9449 53.5427 51.9689 53.5551C52.3779 53.5259 52.6811 53.8794 52.7021 54.2651C52.891 55.5021 53.3558 56.8005 54.4341 57.534C56.5153 58.8771 59.1266 58.7851 61.5096 58.8227C63.4838 58.7351 65.7 58.7086 67.311 57.4033C68.1611 56.6588 68.4129 55.4132 68.1832 54.3416C67.9343 53.4369 66.9882 53.0153 66.1758 52.7396C62.0064 51.4203 57.4807 51.899 53.3516 50.407C51.6753 49.8144 50.0543 48.694 49.4103 46.9712C48.5117 44.533 48.9234 41.5172 50.8154 39.6495C52.6601 37.7917 55.3231 37.0765 57.8549 36.8204Z" fill="white"/>
</g>
<defs>
<filter id="filter0_d_50_66" x="0" y="0" width="106" height="106" filterUnits="userSpaceOnUse" color-interpolation-filters="sRGB">
<feFlood flood-opacity="0" result="BackgroundImageFix"/>
<feColorMatrix in="SourceAlpha" type="matrix" values="0 0 0 0 0 0 0 0 0 0 0 0 0 0 0 0 0 0 127 0" result="hardAlpha"/>
<feOffset dy="4"/>
<feGaussianBlur stdDeviation="2"/>
<feComposite in2="hardAlpha" operator="out"/>
<feColorMatrix type="matrix" values="0 0 0 0 0 0 0 0 0 0 0 0 0 0 0 0 0 0 0.25 0"/>
<feBlend mode="normal" in2="BackgroundImageFix" result="effect1_dropShadow_50_66"/>
<feBlend mode="normal" in="SourceGraphic" in2="effect1_dropShadow_50_66" result="shape"/>
</filter>
<clipPath id="clip0_50_66">
<rect width="59" height="65" fill="white" transform="translate(24 17)"/>
</clipPath>
</defs>
</svg>
