<svg width="106" height="106" viewBox="0 0 106 106" fill="none" xmlns="http://www.w3.org/2000/svg">
<g filter="url(#filter0_d_50_50)">
<rect x="4" width="98" height="98" rx="10" fill="#00DC82"/>
</g>
<g clip-path="url(#clip0_50_50)">
<path d="M57.7588 75H86.7545C87.6756 75 88.5804 74.7599 89.3779 74.3033C90.1769 73.8455 90.8391 73.189 91.298 72.4C91.7587 71.6082 92.0007 70.7118 92 69.7998C91.9997 68.8878 91.7569 67.9917 91.2957 67.2002L71.8228 33.7717C71.3641 32.9827 70.702 32.3263 69.9032 31.8684C69.107 31.4123 68.202 31.1719 67.2803 31.1717C66.3588 31.1719 65.4538 31.4123 64.6577 31.8684C63.8587 32.3262 63.1966 32.9826 62.7378 33.7717L57.7588 42.3246L48.0237 25.5993C47.5645 24.8104 46.9021 24.1542 46.1031 23.6964C45.3067 23.2405 44.4014 23.0002 43.4797 23C42.558 23.0003 41.6529 23.2406 40.8566 23.6967C40.0575 24.1543 39.395 24.8105 38.9357 25.5993L14.7043 67.2002C14.243 67.9916 14.0002 68.8878 14 69.7998C13.9994 70.7118 14.2414 71.6082 14.702 72.4C15.1608 73.1891 15.8231 73.8455 16.6221 74.3033C17.4184 74.7595 18.3237 74.9999 19.2455 75H37.4466C44.6581 75 49.9762 71.8606 53.6359 65.7355L62.5203 50.4859L67.2791 42.3248L81.5607 66.839H62.5203L57.7588 75ZM37.164 66.8278H24.4477L43.4883 34.1442L52.9886 50.4859L46.6278 61.4083C44.1976 65.3825 41.4368 66.8305 37.1498 66.8305" fill="white"/>
</g>
<defs>
<filter id="filter0_d_50_50" x="0" y="0" width="106" height="106" filterUnits="userSpaceOnUse" color-interpolation-filters="sRGB">
<feFlood flood-opacity="0" result="BackgroundImageFix"/>
<feColorMatrix in="SourceAlpha" type="matrix" values="0 0 0 0 0 0 0 0 0 0 0 0 0 0 0 0 0 0 127 0" result="hardAlpha"/>
<feOffset dy="4"/>
<feGaussianBlur stdDeviation="2"/>
<feComposite in2="hardAlpha" operator="out"/>
<feColorMatrix type="matrix" values="0 0 0 0 0 0 0 0 0 0 0 0 0 0 0 0 0 0 0.25 0"/>
<feBlend mode="normal" in2="BackgroundImageFix" result="effect1_dropShadow_50_50"/>
<feBlend mode="normal" in="SourceGraphic" in2="effect1_dropShadow_50_50" result="shape"/>
</filter>
<clipPath id="clip0_50_50">
<rect width="78" height="52" fill="white" transform="translate(14 23)"/>
</clipPath>
</defs>
</svg>
