<svg width="106" height="106" viewBox="0 0 106 106" fill="none" xmlns="http://www.w3.org/2000/svg">
<g filter="url(#filter0_d_50_76)">
<rect x="4" width="98" height="98" rx="10" fill="#007ACC"/>
</g>
<path d="M74.8055 28.3736C76.9603 28.8748 78.9183 30.0031 80.4325 31.6161C81.2665 32.489 81.9908 33.4606 82.5891 34.5093C82.6169 34.6232 78.7062 37.2506 76.3344 38.7162C76.2483 38.7745 75.9066 38.4024 75.5193 37.8303C75.086 37.0855 74.4711 36.4627 73.7318 36.0201C72.9926 35.5774 72.1532 35.3294 71.2921 35.2991C68.566 35.1117 66.8093 36.5394 66.8219 38.9263C66.7984 39.5128 66.9321 40.0948 67.2092 40.6121C67.8091 41.8525 68.9229 42.5966 72.4211 44.1129C78.8606 46.8846 81.6247 48.7121 83.3307 51.3092C84.2951 52.9501 84.889 54.782 85.0709 56.6766C85.2528 58.5712 85.0183 60.4827 84.3837 62.2771C83.5117 64.245 82.1288 65.9436 80.3786 67.1966C78.6284 68.4495 76.5748 69.2112 74.4309 69.4026C72.1519 69.664 69.8493 69.6402 67.5763 69.3317C64.0945 68.7596 60.8871 67.0885 58.4232 64.5628C57.4923 63.5145 56.7041 62.3476 56.0793 61.0925C56.342 60.8971 56.6187 60.7211 56.907 60.566C57.307 60.3382 58.8207 59.4674 60.2483 58.6397L62.8403 57.121L63.382 57.9107C64.2943 59.2154 65.4557 60.3269 66.7992 61.1811C68.156 61.9253 69.6929 62.278 71.2384 62.1998C72.784 62.1215 74.2775 61.6155 75.5522 60.7381C76.2098 60.0972 76.6208 59.2453 76.7134 58.3318C76.806 57.4182 76.5741 56.5012 76.0585 55.7414C75.3598 54.7416 73.9322 53.9012 69.8746 52.142C66.693 51.0691 63.795 49.2909 61.3975 46.9403C60.2557 45.6391 59.4124 44.1039 58.927 42.4422C58.568 40.5493 58.515 38.6111 58.77 36.7014C59.2464 34.5038 60.3867 32.5059 62.0367 30.9782C63.6866 29.4505 65.7663 28.467 67.9939 28.1609C70.2623 27.8899 72.5585 27.9615 74.8055 28.3736ZM53.6873 32.1274L53.7151 35.8078H41.9954V69.0887H33.7309V35.8154H22.0112V32.2008C21.98 30.9629 22.0138 29.7243 22.1125 28.49C22.1555 28.4318 29.281 28.4039 37.9201 28.4191L53.6417 28.4621L53.6873 32.1274Z" fill="white"/>
<defs>
<filter id="filter0_d_50_76" x="0" y="0" width="106" height="106" filterUnits="userSpaceOnUse" color-interpolation-filters="sRGB">
<feFlood flood-opacity="0" result="BackgroundImageFix"/>
<feColorMatrix in="SourceAlpha" type="matrix" values="0 0 0 0 0 0 0 0 0 0 0 0 0 0 0 0 0 0 127 0" result="hardAlpha"/>
<feOffset dy="4"/>
<feGaussianBlur stdDeviation="2"/>
<feComposite in2="hardAlpha" operator="out"/>
<feColorMatrix type="matrix" values="0 0 0 0 0 0 0 0 0 0 0 0 0 0 0 0 0 0 0.25 0"/>
<feBlend mode="normal" in2="BackgroundImageFix" result="effect1_dropShadow_50_76"/>
<feBlend mode="normal" in="SourceGraphic" in2="effect1_dropShadow_50_76" result="shape"/>
</filter>
</defs>
</svg>
