<svg width="106" height="106" viewBox="0 0 106 106" fill="none" xmlns="http://www.w3.org/2000/svg">
<g filter="url(#filter0_d_50_42)">
<rect x="4" width="98" height="98" rx="10" fill="#1697F6"/>
</g>
<g clip-path="url(#clip0_50_42)">
<path d="M53.8048 30.7352L38.6515 57.0245L53 81.927L72.0043 48.9635L91 16H62.2945L53.8048 30.7352Z" fill="#9DD5FE"/>
<path d="M34.0043 48.9635L34.9995 50.697L49.1748 26.0979L54.9991 16H53H15L34.0043 48.9635Z" fill="white"/>
<path d="M62.2945 16C69.4773 39.6717 53 81.927 53 81.927L38.6515 57.0245L62.2945 16Z" fill="white"/>
<path d="M54.9992 16C24.736 16 34.9997 50.697 34.9997 50.697L54.9992 16Z" fill="#C7E7FF"/>
</g>
<defs>
<filter id="filter0_d_50_42" x="0" y="0" width="106" height="106" filterUnits="userSpaceOnUse" color-interpolation-filters="sRGB">
<feFlood flood-opacity="0" result="BackgroundImageFix"/>
<feColorMatrix in="SourceAlpha" type="matrix" values="0 0 0 0 0 0 0 0 0 0 0 0 0 0 0 0 0 0 127 0" result="hardAlpha"/>
<feOffset dy="4"/>
<feGaussianBlur stdDeviation="2"/>
<feComposite in2="hardAlpha" operator="out"/>
<feColorMatrix type="matrix" values="0 0 0 0 0 0 0 0 0 0 0 0 0 0 0 0 0 0 0.25 0"/>
<feBlend mode="normal" in2="BackgroundImageFix" result="effect1_dropShadow_50_42"/>
<feBlend mode="normal" in="SourceGraphic" in2="effect1_dropShadow_50_42" result="shape"/>
</filter>
<clipPath id="clip0_50_42">
<rect width="76" height="66" fill="white" transform="translate(15 16)"/>
</clipPath>
</defs>
</svg>
